<svg width="46" height="46" viewBox="0 0 46 46" fill="none" xmlns="http://www.w3.org/2000/svg">
<path d="M38.3333 5.75H7.66659C5.5525 5.75 3.83325 7.46925 3.83325 9.58333V36.4167C3.83325 38.5308 5.5525 40.25 7.66659 40.25H38.3333C40.4473 40.25 42.1666 38.5308 42.1666 36.4167V9.58333C42.1666 7.46925 40.4473 5.75 38.3333 5.75ZM38.3352 17.25C38.3326 17.25 38.3326 17.25 38.3352 17.25H37.4439L32.3322 9.58333H38.3333L38.3352 17.25ZM18.2773 17.25L13.1655 9.58333H18.1412L23.2529 17.25H18.2773ZM27.8606 17.25L22.7488 9.58333H27.7245L32.8363 17.25H27.8606ZM7.66659 9.58333H8.55784L13.6696 17.25H7.66659V9.58333ZM7.66659 36.4167V21.0833H38.3333L38.3371 36.4167H7.66659Z" fill="white"/>
<path d="M19.1667 34.5L29.7084 28.75L19.1667 23V34.5Z" fill="white"/>
</svg>
