<svg width="30" height="40" viewBox="0 0 30 40" fill="none" xmlns="http://www.w3.org/2000/svg">
<path d="M15.1431 0C6.94375 0 0 6.98312 0 15.2556C0 23.9181 8.04813 32.7769 13.4619 39.0031C13.4825 39.0281 14.3575 40 15.4356 40H15.5313C16.6094 40 17.4782 39.0281 17.5 39.0031C22.5806 33.1625 30 23.5325 30 15.2556C30 6.98312 24.5837 0 15.1431 0ZM15.6444 37.3262C15.6006 37.37 15.5368 37.4188 15.4806 37.4594C15.4231 37.42 15.3606 37.37 15.3144 37.3263L14.6606 36.5744C9.52813 30.6862 2.5 22.6232 2.5 15.2556C2.5 8.34125 8.29 2.49938 15.1431 2.49938C23.6794 2.49938 27.5 8.90562 27.5 15.2556C27.5 20.8488 23.5106 28.275 15.6444 37.3262ZM15.0437 7.56938C10.9018 7.56938 7.54371 10.9275 7.54371 15.0694C7.54371 19.2113 10.9018 22.5694 15.0437 22.5694C19.1856 22.5694 22.5437 19.2113 22.5437 15.0694C22.5437 10.9275 19.1856 7.56938 15.0437 7.56938ZM15.0437 20.0694C12.2868 20.0694 9.98617 17.7719 9.98617 15.0144C9.98617 12.2575 12.2293 10.0144 14.9862 10.0144C17.7449 10.0144 19.9862 12.2575 19.9862 15.0144C19.9874 17.7719 17.8025 20.0694 15.0437 20.0694Z" fill="white"/>
</svg>
