<svg width="32" height="26" viewBox="0 0 32 26" fill="none" xmlns="http://www.w3.org/2000/svg">
<path d="M11.5 11.6667V14.3333M11.5 5V7.66667M11.5 18.3333V21M11.5 1H6.4C5.5645 1 5.146 1 4.795 1.04933C3.85704 1.18187 2.9903 1.5748 2.31887 2.17187C1.64743 2.76894 1.20573 3.53953 1.057 4.37333C1 4.68533 1 5.05733 1 5.8V8.76533C1 8.89467 1.1185 9 1.264 9C2.3872 9 3.46442 9.39652 4.25878 10.1024C5.05314 10.8082 5.49961 11.7656 5.5 12.764V13.236C5.49961 14.2344 5.05314 15.1918 4.25878 15.8976C3.46442 16.6035 2.3872 17 1.264 17C1.22921 17 1.19476 17.0061 1.16263 17.018C1.1305 17.0299 1.10133 17.0473 1.0768 17.0692C1.05226 17.0911 1.03285 17.1172 1.01967 17.1458C1.00649 17.1744 0.999807 17.2051 1 17.236V20.2C1 20.9427 1 21.3147 1.0555 21.6267C1.20441 22.4608 1.64654 23.2317 2.31856 23.8288C2.99058 24.4259 3.85799 24.8186 4.7965 24.9507C5.146 25 5.5645 25 6.4 25H11.5H25.6C26.4355 25 26.854 25 27.2035 24.9507C28.142 24.8186 29.0094 24.4259 29.6814 23.8288C30.3535 23.2317 30.7956 22.4608 30.9445 21.6267C31 21.3147 31 20.9427 31 20.2V17.236C31 17.1053 30.8815 17 30.7345 17C29.6114 17 28.5344 16.6034 27.7403 15.8976C26.9461 15.1917 26.5 14.2343 26.5 13.236V12.764C26.5 11.7657 26.9461 10.8083 27.7403 10.1025C28.5344 9.39656 29.6114 9 30.7345 9C30.7693 9.00018 30.8038 8.99424 30.836 8.98252C30.8682 8.97081 30.8975 8.95355 30.9221 8.93174C30.9468 8.90993 30.9664 8.884 30.9798 8.85545C30.9931 8.82689 31 8.79626 31 8.76533V5.8C31 5.05733 31 4.68533 30.9445 4.37467C30.796 3.54044 30.3542 2.7694 29.6824 2.17205C29.0107 1.5747 28.1434 1.18169 27.205 1.04933C26.854 1 26.4355 1 25.6 1H11.5Z" stroke="white" stroke-width="2" stroke-linecap="round" stroke-linejoin="round"/>
</svg>
