<svg width="39" height="30" viewBox="0 0 39 30" fill="none" xmlns="http://www.w3.org/2000/svg">
<path d="M6.2093 -0.00195312H31.9052C35.2038 -0.00195312 37.8994 2.54136 38.0815 5.74595L38.0912 6.09173V23.904C38.0912 27.1534 35.5093 29.8087 32.2562 29.9882L31.9052 29.9977H6.2093C2.91065 29.9977 0.215022 27.4543 0.033038 24.2498L0.0232544 23.904V6.09173C0.0232544 2.84234 2.60512 0.186951 5.85828 0.00768395L6.2093 -0.00195312ZM35.2361 10.0723L19.7221 18.1173C19.3654 18.3022 18.9489 18.3286 18.5753 18.1966L18.3924 18.1173L2.87835 10.0742V23.904C2.87835 25.6256 4.22427 27.0375 5.93611 27.1744L6.2093 27.1853H31.9052C33.6529 27.1853 35.0861 25.8595 35.2251 24.1731L35.2361 23.904V10.0723ZM31.9052 2.81052H6.2093C4.46166 2.81052 3.02836 4.13633 2.88939 5.82262L2.87835 6.09173V6.8961L19.0572 15.2838L35.2361 6.89422V6.09173C35.2361 4.37018 33.8902 2.95828 32.1783 2.82139L31.9052 2.81052Z" fill="#D9D9D9"/>
</svg>
