<svg width="22" height="17" viewBox="0 0 22 17" fill="none" xmlns="http://www.w3.org/2000/svg">
<path d="M0.975048 8.81939C0.905843 8.61212 0.905777 8.38773 0.97486 8.18042C2.36571 4.00676 6.30981 0.99707 10.9581 0.99707C15.6043 0.99707 19.5469 4.00396 20.9395 8.1746C21.0087 8.38186 21.0087 8.60626 20.9397 8.81356C19.5488 12.9872 15.6047 15.9969 10.9564 15.9969C6.31022 15.9969 2.36762 12.99 0.975048 8.81939Z" stroke="white" stroke-width="1.5" stroke-linecap="round" stroke-linejoin="round"/>
<path d="M13.9627 8.49699C13.9627 10.1538 12.6171 11.497 10.9573 11.497C9.2975 11.497 7.95196 10.1538 7.95196 8.49699C7.95196 6.84015 9.2975 5.49702 10.9573 5.49702C12.6171 5.49702 13.9627 6.84015 13.9627 8.49699Z" stroke="white" stroke-width="1.5" stroke-linecap="round" stroke-linejoin="round"/>
</svg>
