<svg width="42" height="42" viewBox="0 0 42 42" fill="none" xmlns="http://www.w3.org/2000/svg">
<path d="M41.4281 16.9198H39.75V16.8333H21V25.1666H32.774C31.0563 30.0177 26.4406 33.5 21 33.5C14.0969 33.5 8.50002 27.9031 8.50002 21C8.50002 14.0968 14.0969 8.49996 21 8.49996C24.1865 8.49996 27.0854 9.70204 29.2927 11.6656L35.1854 5.77288C31.4646 2.30517 26.4875 0.166626 21 0.166626C9.49481 0.166626 0.166687 9.49475 0.166687 21C0.166687 32.5052 9.49481 41.8333 21 41.8333C32.5052 41.8333 41.8334 32.5052 41.8334 21C41.8334 19.6031 41.6896 18.2395 41.4281 16.9198Z" fill="#FFC107"/>
</svg>
