<svg width="28" height="32" viewBox="0 0 28 32" fill="none" xmlns="http://www.w3.org/2000/svg">
<path fill-rule="evenodd" clip-rule="evenodd" d="M12.9419 23.5868C12.6486 23.8618 12.2669 24 11.8838 24C11.5007 24 11.1175 23.8618 10.8257 23.5868L7.43888 20.3956C6.85371 19.8456 6.85371 18.9529 7.43888 18.4016C8.02405 17.8502 8.96991 17.8502 9.55508 18.4016L11.8838 20.5958L18.4449 14.4135C19.0301 13.8622 19.9759 13.8622 20.5611 14.4135C21.1463 14.9649 21.1463 15.8562 20.5611 16.4075L12.9419 23.5868Z" fill="white"/>
<path d="M6.76207 6.73677C6.76207 3.01615 9.78956 0 13.5241 0C17.2587 0 20.2862 3.01615 20.2862 6.73677V8.42096H21.5541C24.5884 8.42096 27.0483 10.8716 27.0483 13.8946V26.526C27.0483 29.549 24.5884 31.9997 21.5541 31.9997H5.49419C2.45982 31.9997 0 29.549 0 26.526V13.8946C0 10.8716 2.45982 8.42096 5.49419 8.42096H6.76207V6.73677ZM13.5241 2.52629C11.1901 2.52629 9.29785 4.41139 9.29785 6.73677V8.42096H17.7504V6.73677C17.7504 4.41139 15.8582 2.52629 13.5241 2.52629ZM5.49419 10.9473C3.8603 10.9473 2.53578 12.2668 2.53578 13.8946V26.526C2.53578 28.1538 3.8603 29.4734 5.49419 29.4734H21.5541C23.188 29.4734 24.5125 28.1538 24.5125 26.526V13.8946C24.5125 12.2668 23.188 10.9473 21.5541 10.9473H5.49419Z" fill="white"/>
</svg>
