<svg width="39" height="30" viewBox="0 0 39 30" fill="none" xmlns="http://www.w3.org/2000/svg">
<path d="M6.20948 -0.00195312H31.9054C35.204 -0.00195312 37.8996 2.54136 38.0817 5.74595L38.0914 6.09173V23.904C38.0914 27.1534 35.5095 29.8087 32.2564 29.9882L31.9054 29.9977H6.20948C2.91084 29.9977 0.215205 27.4543 0.0332211 24.2498L0.0234375 23.904V6.09173C0.0234375 2.84234 2.6053 0.186951 5.85846 0.00768395L6.20948 -0.00195312ZM35.2363 10.0723L19.7223 18.1173C19.3656 18.3022 18.9491 18.3286 18.5755 18.1966L18.3926 18.1173L2.87854 10.0742V23.904C2.87854 25.6256 4.22445 27.0375 5.93629 27.1744L6.20948 27.1853H31.9054C33.6531 27.1853 35.0863 25.8595 35.2253 24.1731L35.2363 23.904V10.0723ZM31.9054 2.81052H6.20948C4.46184 2.81052 3.02854 4.13633 2.88958 5.82262L2.87854 6.09173V6.8961L19.0574 15.2838L35.2363 6.89422V6.09173C35.2363 4.37018 33.8904 2.95828 32.1785 2.82139L31.9054 2.81052Z" fill="#D9D9D9"/>
</svg>
