<svg width="25" height="31" viewBox="0 0 25 31" fill="none" xmlns="http://www.w3.org/2000/svg">
<path d="M16.3333 18.8889H8.66667C6.63334 18.8889 4.68329 19.6966 3.24551 21.1344C1.80774 22.5722 1 24.5222 1 26.5556V27.8333C1 27.8333 4.99306 29.1111 12.5 29.1111C20.0069 29.1111 24 27.8333 24 27.8333V26.5556C24 24.5222 23.1923 22.5722 21.7545 21.1344C20.3167 19.6966 18.3667 18.8889 16.3333 18.8889ZM6.11111 7.38889C6.11111 5.69445 6.78422 4.06941 7.98237 2.87126C9.18052 1.67311 10.8056 1 12.5 1C14.1944 1 15.8195 1.67311 17.0176 2.87126C18.2158 4.06941 18.8889 5.69445 18.8889 7.38889C18.8889 10.9168 16.0279 15.0556 12.5 15.0556C8.97206 15.0556 6.11111 10.9168 6.11111 7.38889Z" stroke="white" stroke-width="2" stroke-miterlimit="10" stroke-linecap="square"/>
</svg>
