<svg width="28" height="32" viewBox="0 0 28 32" fill="none" xmlns="http://www.w3.org/2000/svg">
<path d="M13.5564 22.7338C14.9568 22.7338 16.0922 21.6027 16.0922 20.2075C16.0922 18.8123 14.9568 17.6812 13.5564 17.6812C12.156 17.6812 11.0206 18.8123 11.0206 20.2075C11.0206 21.6027 12.156 22.7338 13.5564 22.7338ZM6.7943 6.73396C6.7943 3.01335 9.82178 -0.00280762 13.5564 -0.00280762C17.2909 -0.00280762 20.3185 3.01335 20.3185 6.73396V8.41815H21.5863C24.6207 8.41815 27.0805 10.8688 27.0805 13.8918V26.5232C27.0805 29.5462 24.6207 31.9968 21.5863 31.9968H5.52641C2.49205 31.9968 0.0322266 29.5462 0.0322266 26.5232V13.8918C0.0322266 10.8688 2.49205 8.41815 5.52641 8.41815H6.7943V6.73396ZM13.5564 2.52348C11.2223 2.52348 9.33008 4.40858 9.33008 6.73396V8.41815H17.7827V6.73396C17.7827 4.40858 15.8905 2.52348 13.5564 2.52348ZM5.52641 10.9444C3.89253 10.9444 2.568 12.264 2.568 13.8918V26.5232C2.568 28.151 3.89253 29.4706 5.52641 29.4706H21.5863C23.2202 29.4706 24.5447 28.151 24.5447 26.5232V13.8918C24.5447 12.264 23.2202 10.9444 21.5863 10.9444H5.52641Z" fill="white"/>
</svg>
