<svg width="56" height="56" viewBox="0 0 56 56" fill="none" xmlns="http://www.w3.org/2000/svg">
<path d="M28 4.66675C15.113 4.66675 4.66663 15.1131 4.66663 28.0001C4.66663 40.8871 15.113 51.3334 28 51.3334C40.887 51.3334 51.3333 40.8871 51.3333 28.0001C51.3333 15.1131 40.887 4.66675 28 4.66675Z" stroke="white" stroke-width="1.5" stroke-linecap="round" stroke-linejoin="round"/>
<path d="M9.9657 42.8073C9.9657 42.8073 15.1667 36.1667 28 36.1667C40.8334 36.1667 46.0367 42.8073 46.0367 42.8073M28 28C29.8565 28 31.637 27.2625 32.9498 25.9497C34.2625 24.637 35 22.8565 35 21C35 19.1435 34.2625 17.363 32.9498 16.0503C31.637 14.7375 29.8565 14 28 14C26.1435 14 24.363 14.7375 23.0503 16.0503C21.7375 17.363 21 19.1435 21 21C21 22.8565 21.7375 24.637 23.0503 25.9497C24.363 27.2625 26.1435 28 28 28Z" stroke="white" stroke-width="1.5" stroke-linecap="round" stroke-linejoin="round"/>
</svg>
